<svg xmlns="http://www.w3.org/2000/svg" width="512" height="512" viewBox="0 0 512 512">
    
    <defs>
      <linearGradient id="bg" x1="0" y1="0" x2="0" y2="1">
        <stop offset="0" stop-color="#0d323c"/>
        <stop offset="1" stop-color="#051b21"/>
      </linearGradient>
      <filter id="glow" x="-20%" y="-20%" width="140%" height="140%">
        <feGaussianBlur stdDeviation="6" result="b"/>
        <feMerge><feMergeNode in="b"/><feMergeNode in="SourceGraphic"/></feMerge>
      </filter>
    </defs>
    <g transform="translate(256,256) scale(0.56) translate(-256,-256)">
    <g filter="url(#glow)">
      <polyline points="96,300 200,250 304,168 408,92" fill="none"
        stroke="#ff8a75" stroke-width="17" stroke-linecap="round" stroke-linejoin="round" opacity="0.95"/>
    </g>
    
      <rect x="92" y="276" width="8" height="148" rx="4" fill="#2fd6ae"/>
      <rect x="66" y="300" width="60" height="102" rx="13" fill="#2fd6ae"/>
    
      <rect x="196" y="226" width="8" height="142" rx="4" fill="#ff8a75"/>
      <rect x="170" y="250" width="60" height="94" rx="13" fill="#ff8a75"/>
    
      <rect x="300" y="146" width="8" height="176" rx="4" fill="#2fd6ae"/>
      <rect x="274" y="168" width="60" height="132" rx="13" fill="#2fd6ae"/>
    
      <rect x="404" y="70" width="8" height="186" rx="4" fill="#2fd6ae"/>
      <rect x="378" y="92" width="60" height="140" rx="13" fill="#2fd6ae"/>
    <circle cx="408" cy="92" r="16" fill="#ff8a75"/>
    <circle cx="408" cy="92" r="30" fill="none" stroke="#ff8a75" stroke-width="6" opacity="0.5"/></g>
  </svg>